<svg width="332" height="198" viewBox="0 0 332 198" fill="none" xmlns="http://www.w3.org/2000/svg">
<path d="M303.457 19.9434L333 2.88675L362.543 19.9434V54.0566L333 71.1133L303.457 54.0566V19.9434Z" fill="#FFB800" stroke="black" stroke-width="5"/>
<path d="M229.457 19.9434L259 2.88675L288.543 19.9434V54.0566L259 71.1133L229.457 54.0566V19.9434Z" fill="#FFB800" stroke="black" stroke-width="5"/>
<path d="M303.457 143.943L333 126.887L362.543 143.943V178.057L333 195.113L303.457 178.057V143.943Z" fill="#FFB800" stroke="black" stroke-width="5"/>
<path d="M230.457 143.943L260 126.887L289.543 143.943V178.057L260 195.113L230.457 178.057V143.943Z" fill="#FFB800" stroke="black" stroke-width="5"/>
<path d="M155.457 19.9434L185 2.88675L214.543 19.9434V54.0566L185 71.1133L155.457 54.0566V19.9434Z" fill="#FFB800" stroke="black" stroke-width="5"/>
<path d="M267.457 82.9434L297 65.8868L326.543 82.9434V117.057L297 134.113L267.457 117.057V82.9434Z" fill="#FFB800" stroke="black" stroke-width="5"/>
<path d="M192.457 82.9434L222 65.8868L251.543 82.9434V117.057L222 134.113L192.457 117.057V82.9434Z" fill="#FFB800" stroke="black" stroke-width="5"/>
<path d="M155.457 143.943L185 126.887L214.543 143.943V178.057L185 195.113L155.457 178.057V143.943Z" fill="#FFB800" stroke="black" stroke-width="5"/>
<path d="M118.457 82.9434L148 65.8868L177.543 82.9434V117.057L148 134.113L118.457 117.057V82.9434Z" fill="#FFB800" stroke="black" stroke-width="5"/>
<path d="M81.4571 143.943L111 126.887L140.543 143.943V178.057L111 195.113L81.4571 178.057V143.943Z" fill="#FFB800" stroke="black" stroke-width="5"/>
<path d="M44.4571 82.9434L74 65.8868L103.543 82.9434V117.057L74 134.113L44.4571 117.057V82.9434Z" fill="#FFB800" stroke="black" stroke-width="5"/>
<path d="M81.4571 19.9434L111 2.88675L140.543 19.9434V54.0566L111 71.1133L81.4571 54.0566V19.9434Z" fill="#FFB800" stroke="black" stroke-width="5"/>
<path d="M7.45706 19.9434L37 2.88675L66.5429 19.9434V54.0566L37 71.1133L7.45706 54.0566V19.9434Z" fill="#FFB800" stroke="black" stroke-width="5"/>
</svg>
