<svg width="1152" height="32" viewBox="0 0 1152 32" fill="none" xmlns="http://www.w3.org/2000/svg">
<path d="M32 0L45.8564 8V24L32 32L18.1436 24V8L32 0Z" fill="#FFB800"/>
<path d="M64 0L77.8564 8V24L64 32L50.1436 24V8L64 0Z" fill="#8F6700"/>
<path d="M96 0L109.856 8V24L96 32L82.1436 24V8L96 0Z" fill="#FFB800"/>
<path d="M128 0L141.856 8V24L128 32L114.144 24V8L128 0Z" fill="#8F6700"/>
<path d="M160 0L173.856 8V24L160 32L146.144 24V8L160 0Z" fill="#FFB800"/>
<path d="M192 0L205.856 8V24L192 32L178.144 24V8L192 0Z" fill="#8F6700"/>
<path d="M224 0L237.856 8V24L224 32L210.144 24V8L224 0Z" fill="#FFB800"/>
<path d="M256 0L269.856 8V24L256 32L242.144 24V8L256 0Z" fill="#8F6700"/>
<path d="M288 0L301.856 8V24L288 32L274.144 24V8L288 0Z" fill="#FFB800"/>
<path d="M320 0L333.856 8V24L320 32L306.144 24V8L320 0Z" fill="#8F6700"/>
<path d="M352 0L365.856 8V24L352 32L338.144 24V8L352 0Z" fill="#FFB800"/>
<path d="M384 0L397.856 8V24L384 32L370.144 24V8L384 0Z" fill="#8F6700"/>
<path d="M416 0L429.856 8V24L416 32L402.144 24V8L416 0Z" fill="#FFB800"/>
<path d="M448 0L461.856 8V24L448 32L434.144 24V8L448 0Z" fill="#8F6700"/>
<path d="M480 0L493.856 8V24L480 32L466.144 24V8L480 0Z" fill="#FFB800"/>
<path d="M512 0L525.856 8V24L512 32L498.144 24V8L512 0Z" fill="#8F6700"/>
<path d="M544 0L557.856 8V24L544 32L530.144 24V8L544 0Z" fill="#FFB800"/>
<path d="M576 0L589.856 8V24L576 32L562.144 24V8L576 0Z" fill="#8F6700"/>
<path d="M608 0L621.856 8V24L608 32L594.144 24V8L608 0Z" fill="#FFB800"/>
<path d="M640 0L653.856 8V24L640 32L626.144 24V8L640 0Z" fill="#8F6700"/>
<path d="M672 0L685.856 8V24L672 32L658.144 24V8L672 0Z" fill="#FFB800"/>
<path d="M704 0L717.856 8V24L704 32L690.144 24V8L704 0Z" fill="#8F6700"/>
<path d="M736 0L749.856 8V24L736 32L722.144 24V8L736 0Z" fill="#FFB800"/>
<path d="M768 0L781.856 8V24L768 32L754.144 24V8L768 0Z" fill="#8F6700"/>
<path d="M800 0L813.856 8V24L800 32L786.144 24V8L800 0Z" fill="#FFB800"/>
<path d="M832 0L845.856 8V24L832 32L818.144 24V8L832 0Z" fill="#8F6700"/>
<path d="M864 0L877.856 8V24L864 32L850.144 24V8L864 0Z" fill="#FFB800"/>
<path d="M896 0L909.856 8V24L896 32L882.144 24V8L896 0Z" fill="#8F6700"/>
<path d="M928 0L941.856 8V24L928 32L914.144 24V8L928 0Z" fill="#FFB800"/>
<path d="M960 0L973.856 8V24L960 32L946.144 24V8L960 0Z" fill="#8F6700"/>
<path d="M992 0L1005.86 8V24L992 32L978.144 24V8L992 0Z" fill="#FFB800"/>
<path d="M1024 0L1037.86 8V24L1024 32L1010.14 24V8L1024 0Z" fill="#8F6700"/>
<path d="M1056 0L1069.86 8V24L1056 32L1042.14 24V8L1056 0Z" fill="#FFB800"/>
<path d="M1088 0L1101.86 8V24L1088 32L1074.14 24V8L1088 0Z" fill="#8F6700"/>
<path d="M1120 0L1133.86 8V24L1120 32L1106.14 24V8L1120 0Z" fill="#FFB800"/>
</svg>
