<svg width="1440" height="241" viewBox="0 0 1440 241" fill="none" xmlns="http://www.w3.org/2000/svg">
<g opacity="0.8">
<path d="M29 0L84.4256 32V96L29 128L-26.4256 96V32L29 0Z" fill="#8F6700"/>
</g>
<g opacity="0.8">
<path d="M157 0L212.426 32V96L157 128L101.574 96V32L157 0Z" fill="#FFB800"/>
</g>
<g opacity="0.8">
<path d="M285 0L340.426 32V96L285 128L229.574 96V32L285 0Z" fill="white"/>
</g>
<g opacity="0.8">
<path d="M413 0L468.426 32V96L413 128L357.574 96V32L413 0Z" fill="#FFB800"/>
</g>
<g opacity="0.8">
<path d="M541 0L596.426 32V96L541 128L485.574 96V32L541 0Z" fill="#8F6700"/>
</g>
<g opacity="0.8">
<path d="M669 0L724.426 32V96L669 128L613.574 96V32L669 0Z" fill="#FFB800"/>
</g>
<g opacity="0.8">
<path d="M797 0L852.426 32V96L797 128L741.574 96V32L797 0Z" fill="#8F6700"/>
</g>
<g opacity="0.8">
<path d="M925 0L980.426 32V96L925 128L869.574 96V32L925 0Z" fill="#FFB800"/>
</g>
<g opacity="0.8">
<path d="M1053 0L1108.43 32V96L1053 128L997.574 96V32L1053 0Z" fill="#8F6700"/>
</g>
<g opacity="0.8">
<path d="M1181 0L1236.43 32V96L1181 128L1125.57 96V32L1181 0Z" fill="white"/>
</g>
<g opacity="0.8">
<path d="M1309 0L1364.43 32V96L1309 128L1253.57 96V32L1309 0Z" fill="#8F6700"/>
</g>
<g opacity="0.8">
<path d="M1437 0L1492.43 32V96L1437 128L1381.57 96V32L1437 0Z" fill="#FFB800"/>
</g>
<g opacity="0.8">
<path d="M-35 113L20.4256 145V209L-35 241L-90.4256 209V145L-35 113Z" fill="#8F6700"/>
</g>
<g opacity="0.8">
<path d="M93 113L148.426 145V209L93 241L37.5744 209V145L93 113Z" fill="#FFB800"/>
</g>
<g opacity="0.8">
<path d="M221 113L276.426 145V209L221 241L165.574 209V145L221 113Z" fill="#8F6700"/>
</g>
<g opacity="0.8">
<path d="M349 113L404.426 145V209L349 241L293.574 209V145L349 113Z" fill="#FFB800"/>
</g>
<g opacity="0.8">
<path d="M477 113L532.426 145V209L477 241L421.574 209V145L477 113Z" fill="#8F6700"/>
</g>
<g opacity="0.8">
<path d="M605 113L660.426 145V209L605 241L549.574 209V145L605 113Z" fill="#FFB800"/>
</g>
<g opacity="0.8">
<path d="M733 113L788.426 145V209L733 241L677.574 209V145L733 113Z" fill="white"/>
</g>
<g opacity="0.8">
<path d="M861 113L916.426 145V209L861 241L805.574 209V145L861 113Z" fill="#FFB800"/>
</g>
<g opacity="0.8">
<path d="M989 113L1044.43 145V209L989 241L933.574 209V145L989 113Z" fill="#8F6700"/>
</g>
<g opacity="0.8">
<path d="M1117 113L1172.43 145V209L1117 241L1061.57 209V145L1117 113Z" fill="#FFB800"/>
</g>
<g opacity="0.8">
<path d="M1245 113L1300.43 145V209L1245 241L1189.57 209V145L1245 113Z" fill="#8F6700"/>
</g>
<g opacity="0.8">
<path d="M1373 113L1428.43 145V209L1373 241L1317.57 209V145L1373 113Z" fill="#FFB800"/>
</g>
</svg>
