<svg width="263" height="260" viewBox="0 0 263 260" fill="none" xmlns="http://www.w3.org/2000/svg">
<path d="M22.6177 67.9033L131.5 5.75711L240.382 67.9033V192.097L131.5 254.243L22.6177 192.097V67.9033Z" fill="#FFB800" stroke="white" stroke-width="10"/>
<path d="M152.366 151.44V162H110.046V153.6L131.646 133.2C133.94 131.013 135.486 129.147 136.286 127.6C137.086 126 137.486 124.427 137.486 122.88C137.486 120.64 136.713 118.933 135.166 117.76C133.673 116.533 131.46 115.92 128.526 115.92C126.073 115.92 123.86 116.4 121.886 117.36C119.913 118.267 118.26 119.653 116.926 121.52L107.486 115.44C109.673 112.187 112.686 109.653 116.526 107.84C120.366 105.973 124.766 105.04 129.726 105.04C133.886 105.04 137.513 105.733 140.606 107.12C143.753 108.453 146.18 110.373 147.886 112.88C149.646 115.333 150.526 118.24 150.526 121.6C150.526 124.64 149.886 127.493 148.606 130.16C147.326 132.827 144.846 135.867 141.166 139.28L128.286 151.44H152.366Z" fill="black"/>
</svg>
