<svg width="263" height="260" viewBox="0 0 263 260" fill="none" xmlns="http://www.w3.org/2000/svg">
<path d="M22.6177 67.9033L131.5 5.75711L240.382 67.9033V192.097L131.5 254.243L22.6177 192.097V67.9033Z" fill="#FFB800" stroke="white" stroke-width="10"/>
<path d="M136.608 128.8C141.515 129.6 145.275 131.44 147.888 134.32C150.501 137.147 151.808 140.667 151.808 144.88C151.808 148.133 150.955 151.147 149.248 153.92C147.541 156.64 144.928 158.827 141.408 160.48C137.941 162.133 133.675 162.96 128.608 162.96C124.661 162.96 120.768 162.453 116.928 161.44C113.141 160.373 109.915 158.88 107.248 156.96L112.288 147.04C114.421 148.64 116.875 149.893 119.648 150.8C122.475 151.653 125.355 152.08 128.288 152.08C131.541 152.08 134.101 151.467 135.968 150.24C137.835 148.96 138.768 147.173 138.768 144.88C138.768 140.293 135.275 138 128.288 138H122.368V129.44L133.888 116.4H110.048V106H149.248V114.4L136.608 128.8Z" fill="black"/>
</svg>
